<mxfile host="app.diagrams.net" agent="Mozilla/5.0 (Macintosh; Intel Mac OS X 10_15_7) AppleWebKit/537.36 (KHTML, like Gecko) Chrome/131.0.0.0 Safari/537.36" version="26.2.14">
  <diagram name="PÃ¡gina-1" id="Nlrltn6EPk0Q5097YcIC">
    <mxGraphModel dx="1184" dy="249" grid="0" gridSize="10" guides="1" tooltips="1" connect="1" arrows="1" fold="1" page="0" pageScale="1" pageWidth="827" pageHeight="1169" math="0" shadow="0">
      <root>
        <mxCell id="0" />
        <mxCell id="1" parent="0" />
        <mxCell id="vRNx8NZfqglaYiSGzMKn-1" value="" style="rounded=0;whiteSpace=wrap;html=1;" vertex="1" parent="1">
          <mxGeometry x="-17" y="70" width="411" height="257" as="geometry" />
        </mxCell>
        <mxCell id="vRNx8NZfqglaYiSGzMKn-2" value="" style="rounded=0;whiteSpace=wrap;html=1;" vertex="1" parent="1">
          <mxGeometry x="80" y="84" width="210" height="177" as="geometry" />
        </mxCell>
        <mxCell id="vRNx8NZfqglaYiSGzMKn-3" value="Avatar" style="ellipse;whiteSpace=wrap;html=1;" vertex="1" parent="1">
          <mxGeometry x="152.5" y="90" width="65" height="65" as="geometry" />
        </mxCell>
        <mxCell id="vRNx8NZfqglaYiSGzMKn-4" value="Description" style="rounded=0;whiteSpace=wrap;html=1;" vertex="1" parent="1">
          <mxGeometry x="120" y="160" width="134" height="28" as="geometry" />
        </mxCell>
        <mxCell id="vRNx8NZfqglaYiSGzMKn-5" value="Contact" style="rounded=0;whiteSpace=wrap;html=1;" vertex="1" parent="1">
          <mxGeometry x="120" y="192" width="134" height="28" as="geometry" />
        </mxCell>
        <mxCell id="vRNx8NZfqglaYiSGzMKn-6" value="Education" style="rounded=0;whiteSpace=wrap;html=1;" vertex="1" parent="1">
          <mxGeometry x="98" y="228" width="64" height="25" as="geometry" />
        </mxCell>
        <mxCell id="vRNx8NZfqglaYiSGzMKn-7" value="Experiencia" style="rounded=0;whiteSpace=wrap;html=1;" vertex="1" parent="1">
          <mxGeometry x="208" y="228" width="64" height="25" as="geometry" />
        </mxCell>
      </root>
    </mxGraphModel>
  </diagram>
</mxfile>
